<?xml version="1.0" standalone="no"?>
<!DOCTYPE svg PUBLIC "-//W3C//DTD SVG 20010904//EN"
 "http://www.w3.org/TR/2001/REC-SVG-20010904/DTD/svg10.dtd">
<svg version="1.0" xmlns="http://www.w3.org/2000/svg"
 width="207.000000pt" height="207.000000pt" viewBox="0 0 207.000000 207.000000"
 preserveAspectRatio="xMidYMid meet">
<metadata>
Created by potrace 1.14, written by Peter Selinger 2001-2017
</metadata>
<g transform="translate(0.000000,207.000000) scale(0.100000,-0.100000)"
fill="#000000" stroke="none">
<path d="M1250 1600 c0 -5 5 -10 10 -10 6 0 10 5 10 10 0 6 -4 10 -10 10 -5 0
-10 -4 -10 -10z"/>
<path d="M1296 1601 c14 -15 54 -23 54 -10 0 5 -6 9 -14 9 -8 0 -23 3 -33 6
-13 5 -15 4 -7 -5z"/>
<path d="M1113 1589 c-10 -3 -36 -9 -58 -12 -22 -4 -51 -9 -65 -12 -14 -3 -41
-8 -60 -11 -39 -7 -187 -79 -265 -129 -27 -17 -74 -53 -103 -80 -47 -43 -51
-50 -38 -64 14 -13 17 -13 33 6 23 26 149 113 166 114 6 0 3 4 -7 8 -16 6 -13
11 25 33 24 14 69 34 99 44 30 10 60 23 65 30 13 17 113 35 121 22 4 -5 15 -8
25 -5 10 3 21 2 23 -2 3 -4 -12 -8 -32 -9 -51 -3 -183 -45 -156 -50 12 -2 39
4 60 13 61 25 261 38 344 22 55 -10 171 -52 215 -77 22 -13 65 -43 95 -68 30
-24 66 -48 79 -53 15 -6 21 -14 17 -25 -3 -9 3 -27 14 -41 11 -14 20 -31 20
-38 0 -7 11 -20 24 -28 14 -9 24 -26 24 -39 0 -13 7 -43 17 -68 9 -24 18 -58
19 -76 2 -17 6 -36 10 -43 4 -6 3 -11 -3 -11 -6 0 -10 -27 -10 -68 0 -37 -2
-84 -6 -105 l-7 -37 -34 30 c-19 16 -38 30 -42 30 -4 0 5 -10 21 -21 15 -11
27 -25 27 -30 0 -6 -15 1 -32 14 -48 34 -101 57 -161 67 -28 5 -65 12 -82 15
-30 6 -73 12 -108 14 -10 0 -16 5 -13 10 8 13 -74 57 -153 82 -52 17 -98 22
-216 25 -154 3 -195 -2 -279 -37 -27 -11 -58 -22 -69 -25 -11 -2 -29 -11 -39
-21 -15 -13 -39 -18 -92 -19 -39 -1 -72 -2 -74 -3 -1 -1 2 -10 8 -20 7 -13 16
-18 32 -14 14 4 20 2 15 -3 -8 -9 -13 -10 -40 -13 -7 0 -23 -18 -34 -40 -28
-52 -27 -169 1 -200 11 -12 16 -24 13 -27 -4 -4 -42 -6 -86 -6 -44 1 -82 -2
-85 -6 -2 -4 62 -9 142 -11 81 -2 163 -4 182 -6 19 -1 89 -6 155 -10 66 -4
140 -9 165 -12 74 -7 951 -9 1005 -2 l50 6 -65 3 c-60 3 -103 5 -139 9 -12 1
-12 4 -3 13 7 7 30 11 51 9 22 -1 42 3 46 9 5 8 1 10 -11 7 -11 -4 -35 -2 -54
2 -26 7 -29 9 -12 10 22 1 23 5 19 41 -2 22 0 40 5 40 6 0 8 -7 5 -15 -4 -8
-2 -17 3 -20 6 -4 10 5 10 19 0 18 -6 26 -17 27 -16 0 -16 1 -2 7 12 5 14 13
8 30 -5 12 -13 22 -18 22 -9 0 26 61 45 80 6 5 -3 -59 -13 -94 -3 -10 -1 -16
4 -13 6 4 18 31 27 62 10 30 21 55 25 55 3 0 16 -7 28 -15 21 -15 21 -17 7
-58 -8 -23 -19 -59 -24 -80 -7 -31 -6 -37 6 -33 18 7 18 8 -6 -42 -24 -49 -24
-52 -5 -52 8 0 15 6 15 14 0 8 5 18 11 22 8 5 10 -1 6 -19 -6 -22 -4 -24 13
-20 26 7 36 27 55 100 l14 58 -3 -60 c-2 -33 -7 -70 -11 -82 -5 -17 -3 -23 8
-23 15 0 19 12 44 130 3 17 16 150 15 165 -1 6 -3 51 -5 101 -2 50 -9 99 -16
110 -9 15 -10 5 -5 -47 7 -69 -3 -225 -14 -215 -3 4 -5 51 -5 107 1 97 -17
196 -46 259 -35 74 -79 145 -92 146 -8 1 -43 29 -79 64 -36 34 -91 84 -122
111 -60 50 -171 109 -206 109 -11 0 -22 5 -24 11 -4 13 -78 30 -78 18 0 -5 7
-9 17 -9 9 0 14 -2 12 -5 -3 -2 -45 2 -94 10 -117 19 -169 23 -192 14z"/>
<path d="M1326 1444 c-20 -14 -21 -38 -2 -54 17 -14 12 -33 -21 -77 -16 -22
-19 -31 -8 -27 16 7 19 -4 7 -22 -6 -10 -68 -32 -107 -38 -5 -1 -15 -5 -21 -8
-6 -4 -42 -6 -80 -4 l-69 3 3 -76 c3 -93 7 -107 25 -92 8 6 40 9 75 7 l62 -3
0 34 c0 21 6 36 15 39 8 4 15 11 15 18 0 13 35 46 50 46 6 0 6 -9 0 -26 -14
-35 -14 -34 22 -34 l32 0 -57 -56 c-60 -58 -64 -74 -19 -74 25 0 91 32 102 51
3 4 12 4 19 0 19 -12 5 -30 -42 -51 l-40 -18 49 -14 c38 -11 53 -12 67 -3 31
21 75 87 69 107 -2 11 1 18 9 19 8 0 -6 7 -30 14 -30 9 -50 11 -62 4 -29 -15
-31 -10 -9 21 12 16 32 33 46 36 25 6 44 31 44 57 0 11 -10 12 -43 7 -23 -3
-48 -10 -55 -14 -7 -4 -12 -3 -12 3 0 19 85 42 145 39 57 -3 60 -2 69 24 11
31 -5 58 -36 58 -11 0 -49 -14 -85 -32 -62 -30 -67 -30 -91 -15 -38 23 -37 30
11 51 67 31 85 67 51 101 -18 18 -73 17 -98 -1z m-230 -319 c11 -8 32 -17 47
-20 15 -4 26 -12 24 -18 -4 -12 -106 -22 -108 -10 -10 87 -1 158 12 95 4 -18
15 -39 25 -47z m314 -53 c0 -13 -12 -22 -22 -16 -10 6 -1 24 13 24 5 0 9 -4 9
-8z"/>
<path d="M479 1238 c-17 -18 -42 -52 -56 -76 -25 -43 -56 -132 -49 -139 2 -3
20 12 39 33 29 31 41 38 80 40 37 2 47 -1 52 -16 8 -26 30 -41 48 -34 13 5 10
12 -17 37 -19 18 -45 56 -60 86 -25 54 -25 54 -6 71 11 10 20 20 20 24 0 15
-22 4 -51 -26z m8 -42 c-14 -37 -59 -96 -68 -90 -6 3 -6 11 -1 17 4 7 19 29
32 49 24 37 47 52 37 24z m-67 -110 c0 -3 -4 -8 -10 -11 -5 -3 -10 -1 -10 4 0
6 5 11 10 11 6 0 10 -2 10 -4z"/>
<path d="M1539 1225 c-1 -6 0 -50 1 -98 1 -57 -3 -93 -11 -103 -6 -8 -10 -17
-7 -20 3 -2 13 7 22 20 20 31 26 180 8 198 -7 7 -12 8 -13 3z"/>
<path d="M1653 1186 c-36 -47 -50 -76 -36 -76 6 0 18 18 28 40 10 22 22 40 27
40 4 0 9 -22 9 -50 2 -66 2 -67 16 -81 9 -9 17 -7 35 6 13 9 17 16 8 14 -35
-4 -38 1 -36 71 1 41 -2 71 -9 73 -5 3 -25 -14 -42 -37z"/>
<path d="M639 1215 c-1 -9 1 -48 5 -140 2 -44 21 -37 21 8 l0 37 48 0 c33 0
47 -4 47 -13 0 -21 -34 -47 -61 -47 -18 0 -20 -3 -10 -9 22 -14 71 8 91 42 22
35 17 51 -11 42 -25 -8 -24 7 1 30 37 34 26 43 -47 40 -44 -2 -71 1 -75 8 -4
7 -8 8 -9 2z m111 -31 c0 -3 -4 -13 -10 -23 -20 -38 -70 -36 -70 3 0 20 6 23
40 24 22 1 40 -1 40 -4z"/>
<path d="M840 1209 c-21 -6 -20 -7 13 -8 l37 -1 0 -81 c0 -44 -5 -89 -10 -100
-6 -10 -7 -19 -2 -19 18 0 33 58 35 126 l2 69 40 6 c22 3 37 7 33 9 -17 6
-124 6 -148 -1z"/>
<path d="M1585 1180 c9 -30 21 -45 28 -33 3 5 -3 20 -14 33 l-20 25 6 -25z"/>
<path d="M351 923 c-12 -40 -14 -70 -6 -61 11 10 33 98 24 98 -4 0 -13 -17
-18 -37z"/>
<path d="M2044 544 c-4 -10 -9 -22 -11 -26 -2 -5 0 -8 5 -8 10 0 24 41 17 48
-3 3 -8 -4 -11 -14z"/>
<path d="M30 502 c0 -7 18 -9 46 -6 38 3 44 1 35 -9 -8 -10 -7 -14 4 -14 8 0
12 4 9 8 -2 4 0 10 6 14 5 3 10 1 10 -4 0 -6 21 -12 48 -12 46 -2 47 -2 12 -9
-19 -5 73 -6 205 -3 132 3 282 5 333 5 109 -1 124 12 20 17 -40 1 -98 4 -128
6 -208 12 -600 16 -600 7z"/>
<path d="M846 482 c-3 -4 4 -9 15 -9 23 -2 25 3 4 10 -8 4 -16 3 -19 -1z"/>
<path d="M890 476 c0 -10 28 -13 41 -5 10 6 7 9 -13 9 -16 0 -28 -2 -28 -4z"/>
</g>
</svg>
